<svg width="56" height="56" viewBox="14 14 28 28" fill="none" xmlns="http://www.w3.org/2000/svg">
<path d="M23.4545 28.4667C24.9636 28.4667 26.1818 27.216 26.1818 25.6667C26.1818 24.1173 24.9636 22.8667 23.4545 22.8667C21.9455 22.8667 20.7273 24.1173 20.7273 25.6667C20.7273 27.216 21.9455 28.4667 23.4545 28.4667ZM34.3636 22.8667H28.9091C27.9091 22.8667 27.0909 23.7067 27.0909 24.7333V29.4H19.8182V21.9333C19.8182 21.42 19.4091 21 18.9091 21C18.4091 21 18 21.42 18 21.9333V34.0667C18 34.58 18.4091 35 18.9091 35C19.4091 35 19.8182 34.58 19.8182 34.0667V32.2H36.1818V34.0667C36.1818 34.58 36.5909 35 37.0909 35C37.5909 35 38 34.58 38 34.0667V26.6C38 24.5373 36.3727 22.8667 34.3636 22.8667Z" fill="url(#accommodation_gradient)"/>
<defs>
<radialGradient id="accommodation_gradient" cx="28" cy="28" r="14" gradientUnits="userSpaceOnUse">
<stop stop-color="#E34F97"/>
<stop offset="1" stop-color="#F29C9C"/>
</radialGradient>
</defs>
</svg>
