<svg width="56" height="56" viewBox="14 14 28 28" fill="none" xmlns="http://www.w3.org/2000/svg">
<path d="M27 35V30L19.45 21.5C19.3167 21.3667 19.2083 21.2127 19.125 21.038C19.0417 20.8633 19 20.684 19 20.5C19 20.0667 19.15 19.7083 19.45 19.425C19.75 19.1417 20.1167 19 20.55 19H35.45C35.8833 19 36.25 19.1417 36.55 19.425C36.85 19.7083 37 20.0667 37 20.5C37 20.6833 36.9583 20.8627 36.875 21.038C36.7917 21.2133 36.6833 21.3673 36.55 21.5L29 30V35H33C33.2833 35 33.521 35.096 33.713 35.288C33.905 35.48 34.0007 35.7173 34 36C33.9993 36.2827 33.9033 36.5203 33.712 36.713C33.5207 36.9057 33.2833 37.0013 33 37H23C22.7167 37 22.4793 36.904 22.288 36.712C22.0967 36.52 22.0007 36.2827 22 36C21.9993 35.7173 22.0953 35.48 22.288 35.288C22.4807 35.096 22.718 35 23 35H27ZM23.45 23H32.55L34.35 21H21.65L23.45 23Z" fill="url(#bar_gradient)"/>
<defs>
<radialGradient id="bar_gradient" cx="28" cy="28" r="14" gradientUnits="userSpaceOnUse">
<stop stop-color="#E34F97"/>
<stop offset="1" stop-color="#F29C9C"/>
</radialGradient>
</defs>
</svg>
