<svg width="56" height="56" viewBox="14 14 28 28" fill="none" xmlns="http://www.w3.org/2000/svg">
<path d="M36.5099 27.6028V35.1111C36.5099 35.6306 36.3249 36.0754 35.9549 36.4456C35.5848 36.8158 35.1394 37.0006 34.6187 37H21.3806C20.8605 37 20.4154 36.8152 20.0454 36.4456C19.6753 36.076 19.49 35.6312 19.4894 35.1111V27.6028C19.1269 27.2722 18.8473 26.8472 18.6506 26.3278C18.454 25.8083 18.4499 25.2417 18.6384 24.6278L19.6312 21.4167C19.7573 21.0074 19.982 20.669 20.3054 20.4014C20.6288 20.1338 21.003 20 21.4278 20H34.5715C34.997 20 35.3673 20.13 35.6825 20.3901C35.9977 20.6501 36.2262 20.9923 36.3681 21.4167L37.3609 24.6278C37.5501 25.2417 37.5463 25.8005 37.3496 26.3042C37.1529 26.8079 36.873 27.2407 36.5099 27.6028ZM30.0799 26.6111C30.5055 26.6111 30.8285 26.4657 31.0492 26.1748C31.2698 25.8839 31.3565 25.5571 31.3092 25.1944L30.7891 21.8889H28.9452V25.3833C28.9452 25.7139 29.0556 26.0013 29.2762 26.2456C29.4968 26.4899 29.7647 26.6117 30.0799 26.6111ZM25.8248 26.6111C26.1873 26.6111 26.4829 26.489 26.7118 26.2447C26.9406 26.0004 27.0547 25.7133 27.0541 25.3833V21.8889H25.2102L24.6901 25.1944C24.6271 25.5722 24.7096 25.9028 24.9378 26.1861C25.166 26.4694 25.4617 26.6111 25.8248 26.6111ZM21.617 26.6111C21.9006 26.6111 22.1487 26.5088 22.3611 26.3042C22.5736 26.0995 22.7037 25.8398 22.7517 25.525L23.2717 21.8889H21.4278L20.4822 25.0528C20.3877 25.3676 20.4388 25.706 20.6354 26.0681C20.8321 26.4301 21.1593 26.6111 21.617 26.6111ZM34.3823 26.6111C34.8394 26.6111 35.1703 26.4301 35.3752 26.0681C35.5801 25.706 35.6274 25.3676 35.5171 25.0528L34.5242 21.8889H32.7276L33.2476 25.525C33.2949 25.8398 33.4251 26.0995 33.6382 26.3042C33.8512 26.5088 34.0993 26.6111 34.3823 26.6111Z" fill="url(#convenience_gradient)"/>
<defs>
<radialGradient id="convenience_gradient" cx="28" cy="28" r="14" gradientUnits="userSpaceOnUse">
<stop stop-color="#E34F97"/>
<stop offset="1" stop-color="#F29C9C"/>
</radialGradient>
</defs>
</svg>
