<svg width="56" height="56" viewBox="14 14 28 28" fill="none" xmlns="http://www.w3.org/2000/svg">
<path d="M36.1695 19.9928C36.064 19.4462 35.5326 19.0911 34.9873 19.2026L32.515 19.7083L34.9293 22.9233L35.7015 22.7617C36.2361 22.6498 36.5821 22.1296 36.4785 21.5933L36.1695 19.9928ZM29.9245 20.2351L28.1886 20.5893L30.6118 23.7951L32.3388 23.4409L29.9245 20.2351ZM25.6069 21.1069L23.8711 21.4793L26.2942 24.6851L28.0212 24.3309L25.6069 21.1069ZM21.2805 22.0151L20.417 22.1877C19.9592 22.2819 19.5563 22.5596 19.2969 22.9598C19.0376 23.3599 18.9429 23.8498 19.0336 24.3219L19.3773 26.1019L23.6948 25.221L21.2805 22.0151ZM19.3773 26.1019V35.1836C19.3773 35.6653 19.5629 36.1273 19.8934 36.468C20.2239 36.8086 20.6722 37 21.1395 37H35.2377C36.2158 37 37 36.1917 37 35.1836V26.1019H19.3773Z" fill="url(#entertain_gradient)"/>
<defs>
<radialGradient id="entertain_gradient" cx="28" cy="28" r="14" gradientUnits="userSpaceOnUse">
<stop stop-color="#E34F97"/>
<stop offset="1" stop-color="#F29C9C"/>
</radialGradient>
</defs>
</svg>
