<svg width="56" height="56" viewBox="14 14 28 28" fill="none" xmlns="http://www.w3.org/2000/svg">
<path d="M23.2455 33.04C22.8148 33.2361 22.475 33.6313 22.475 34.1045V37.2237C22.475 37.6525 22.1274 38 21.6987 38C21.27 38 20.9225 37.6525 20.9225 37.2237V34.1208C20.9225 33.6472 20.5824 33.2515 20.1509 33.0562C19.5455 32.7822 19.0215 32.3483 18.6406 31.7953C18.1053 31.0183 17.8939 30.0664 18.0504 29.1385C19.3234 21.7077 20.5654 18 21.7919 18C23.0028 18 24.1983 21.7077 25.3626 29.1231C25.6158 30.7869 24.7138 32.3715 23.2455 33.04ZM25.58 34.3846C25.58 33.8323 26.0277 33.3846 26.58 33.3846H37C37.5523 33.3846 38 33.8323 38 34.3846V37.2237C38 37.6525 37.6525 38 37.2237 38C36.795 38 36.4475 37.6525 36.4475 37.2237V35.9231C36.4475 35.3708 35.9998 34.9231 35.4475 34.9231H28.1325C27.5802 34.9231 27.1325 35.3708 27.1325 35.9231V37.2237C27.1325 37.6525 26.7849 38 26.3562 38C25.9275 38 25.58 37.6525 25.58 37.2237V34.3846ZM27.1325 29.7692C27.1325 29.2169 27.5802 28.7692 28.1325 28.7692H35.4475C35.9998 28.7692 36.4475 29.2169 36.4475 29.7692V31.6154C36.4475 32.1677 35.9998 32.6154 35.4475 32.6154H28.1325C27.5802 32.6154 27.1325 32.1677 27.1325 31.6154V29.7692Z" fill="url(#park_gradient)"/>
<defs>
<radialGradient id="park_gradient" cx="28" cy="28" r="14" gradientUnits="userSpaceOnUse">
<stop stop-color="#E34F97"/>
<stop offset="1" stop-color="#F29C9C"/>
</radialGradient>
</defs>
</svg>
