<svg width="56" height="56" viewBox="14 14 28 28" fill="none" xmlns="http://www.w3.org/2000/svg">
<path fill-rule="evenodd" clip-rule="evenodd" d="M25.0001 24C25.0001 23.2044 25.3161 22.4413 25.8787 21.8787C26.4413 21.3161 27.2044 21 28.0001 21C28.7957 21 29.5588 21.3161 30.1214 21.8787C30.684 22.4413 31.0001 23.2044 31.0001 24H25.0001ZM23.0001 24C23.0001 22.6739 23.5268 21.4021 24.4645 20.4645C25.4022 19.5268 26.674 19 28.0001 19C29.3261 19 30.5979 19.5268 31.5356 20.4645C32.4733 21.4021 33.0001 22.6739 33.0001 24H36.0001C36.139 24 36.2764 24.0289 36.4035 24.085C36.5306 24.141 36.6446 24.2229 36.7383 24.3254C36.832 24.428 36.9034 24.5489 36.9477 24.6806C36.9921 24.8122 37.0086 24.9516 36.9961 25.09L36.1611 34.272C36.0932 35.0174 35.7492 35.7105 35.1965 36.2152C34.6439 36.7199 33.9225 36.9998 33.1741 37H22.8261C22.0776 36.9998 21.3562 36.7199 20.8036 36.2152C20.2509 35.7105 19.9069 35.0174 19.8391 34.272L19.0041 25.09C18.9916 24.9516 19.008 24.8122 19.0524 24.6806C19.0968 24.5489 19.1681 24.428 19.2618 24.3254C19.3555 24.2229 19.4695 24.141 19.5966 24.085C19.7238 24.0289 19.8611 24 20.0001 24H23.0001Z" fill="url(#shopping_gradient)"/>
<defs>
<radialGradient id="shopping_gradient" cx="28" cy="28" r="14" gradientUnits="userSpaceOnUse">
<stop stop-color="#E34F97"/>
<stop offset="1" stop-color="#F29C9C"/>
</radialGradient>
</defs>
</svg>
