<svg width="56" height="56" viewBox="14 14 28 28" fill="none" xmlns="http://www.w3.org/2000/svg">
<path d="M26.9252 37.4381C25.8504 37.3038 24.8318 37.0071 23.8694 36.548C22.907 36.089 22.0447 35.4788 21.2825 34.7175C20.5202 33.9562 19.9103 33.0941 19.4526 32.1313C18.9949 31.1684 18.698 30.1496 18.5619 29.0748C19.715 28.9293 20.8431 29.0385 21.9461 29.4026C23.0492 29.7667 24.0091 30.3572 24.8259 31.174C25.6428 31.9909 26.2335 32.951 26.598 34.0545C26.9626 35.158 27.0716 36.2858 26.9252 37.4381ZM34.7175 34.7175C33.9114 35.5236 33.0074 36.1589 32.0056 36.6233C31.0038 37.0877 29.9429 37.3649 28.8229 37.4549C28.9572 36.0442 28.7978 34.6756 28.3446 33.3492C27.8914 32.0227 27.1607 30.8554 26.1527 29.8473C25.1446 28.8392 23.9775 28.1088 22.6515 27.6561C21.3254 27.2033 19.9566 27.0436 18.5451 27.1771C18.6346 26.0575 18.9118 24.9966 19.3767 23.9943C19.8415 22.9921 20.4768 22.0881 21.2825 21.2825C22.0881 20.4768 22.9923 19.8414 23.995 19.3761C24.9977 18.9108 26.0584 18.6338 27.1771 18.5451C27.0427 19.9558 27.2024 21.3246 27.656 22.6515C28.1097 23.9784 28.8401 25.1455 29.8473 26.1527C30.8545 27.1599 32.0217 27.8905 33.3491 28.3446C34.6765 28.7987 36.0451 28.9581 37.4549 28.8229C37.3653 29.9425 37.0881 31.0034 36.6232 32.0057C36.1584 33.0079 35.5231 33.9119 34.7175 34.7175ZM37.4381 26.9252C36.2849 27.0707 35.157 26.9617 34.0545 26.5981C32.9519 26.2344 31.9917 25.6437 31.174 24.826C30.3562 24.0082 29.7656 23.0481 29.4019 21.9455C29.0383 20.8429 28.9292 19.7151 29.0748 18.5619C30.1496 18.6962 31.1686 18.9929 32.1319 19.452C33.0952 19.911 33.9571 20.5212 34.7175 21.2825C35.4779 22.0438 36.0883 22.9059 36.5487 23.8687C37.0091 24.8316 37.3055 25.8504 37.4381 26.9252Z" fill="url(#sports_gradient)"/>
<defs>
<radialGradient id="sports_gradient" cx="28" cy="28" r="14" gradientUnits="userSpaceOnUse">
<stop stop-color="#E34F97"/>
<stop offset="1" stop-color="#F29C9C"/>
</radialGradient>
</defs>
</svg>
