<svg width="500" height="132" viewBox="0 0 500 132" fill="none" xmlns="http://www.w3.org/2000/svg">
<path d="M466.636 82.6515C466.48 83.0025 466.402 83.5291 466.402 84.2311C466.402 84.8454 466.519 85.328 466.753 85.6791C467.066 86.0301 467.456 86.2056 467.925 86.2056C468.862 86.2056 469.643 85.7668 470.268 84.8893C470.971 83.924 471.44 83.4413 471.674 83.4413C472.064 83.4413 472.377 83.7485 472.611 84.3627C472.845 84.8893 472.963 85.5474 472.963 86.3372C473.041 88.8821 472.299 91.3831 470.737 93.8402C469.175 96.2096 466.871 98.184 463.824 99.7636C460.857 101.255 457.264 102.001 453.046 102.001C447.891 102.001 443.791 100.685 440.745 98.0524C437.699 95.332 436.137 91.7341 436.059 87.2586C436.059 84.0117 436.762 80.3699 438.167 76.3332L444.611 57.3783C445.001 56.2375 445.197 55.316 445.197 54.614C445.197 53.4732 444.845 52.5957 444.142 51.9814C443.518 51.2793 442.737 50.9283 441.799 50.9283C440.471 50.9283 439.105 51.5865 437.699 52.9028C436.293 54.2191 435.043 56.2813 433.95 59.0895L427.506 82.6515C427.35 83.0025 427.272 83.5291 427.272 84.2311C427.272 84.8454 427.389 85.328 427.623 85.6791C427.936 86.0301 428.326 86.2056 428.795 86.2056C429.732 86.2056 430.513 85.7668 431.138 84.8893C431.841 83.924 432.31 83.4413 432.544 83.4413C432.934 83.4413 433.247 83.7485 433.481 84.3627C433.716 84.8893 433.833 85.5474 433.833 86.3372C433.911 88.8821 433.169 91.3831 431.607 93.8402C430.045 96.2096 427.741 98.184 424.695 99.7636C421.727 101.255 418.134 102.001 413.916 102.001C408.761 102.001 404.661 100.685 401.615 98.0524C398.569 95.332 397.007 91.7341 396.929 87.2586C396.929 84.0117 397.632 80.3699 399.038 76.3332L405.481 57.3783C405.872 56.2375 406.067 55.316 406.067 54.614C406.067 53.4732 405.715 52.5957 405.012 51.9814C404.388 51.2793 403.607 50.9283 402.669 50.9283C401.342 50.9283 399.975 51.5865 398.569 52.9028C397.163 54.1314 395.991 56.1497 395.054 58.9578L387.322 87.127C387.01 88.0923 386.853 89.0137 386.853 89.8913C386.853 90.9443 387.049 91.8219 387.439 92.5239C387.83 93.1382 388.376 93.7963 389.079 94.4984C389.626 95.0249 390.017 95.5075 390.251 95.9463C390.485 96.3851 390.524 96.9116 390.368 97.5259C390.056 98.6667 389.314 99.5004 388.142 100.027C386.971 100.553 385.135 100.817 382.636 100.817H355.924C353.894 100.817 352.449 100.466 351.59 99.7636C350.652 98.9738 350.301 97.9647 350.535 96.7361C350.848 95.6831 351.668 94.7616 352.995 93.9718C354.167 93.2698 355.143 92.4361 355.924 91.4708C356.705 90.5055 357.369 88.9698 357.916 86.8637L368.343 48.8222C368.499 48.3835 368.577 47.7692 368.577 46.9794C368.577 46.0141 368.382 45.2682 367.991 44.7416C367.679 44.2151 367.132 43.557 366.351 42.7672C365.57 42.0651 365.023 41.4509 364.711 40.9243C364.399 40.3978 364.359 39.6958 364.594 38.8182C365.062 36.7999 367.523 35.0448 371.975 33.553C376.426 31.9734 381.074 31.1836 385.916 31.1836C389.743 31.1836 392.75 32.3683 394.937 34.7376C397.202 37.107 398.296 40.3539 398.217 44.4784C401.42 39.4764 404.778 36.0101 408.293 34.0795C411.886 32.1489 415.752 31.1836 419.891 31.1836C424.421 31.1836 428.092 32.6754 430.904 35.6591C433.794 38.555 435.395 42.3723 435.707 47.111C439.066 41.1437 442.658 37.0193 446.485 34.7376C450.313 32.3683 454.491 31.1836 459.021 31.1836C463.785 31.1836 467.613 32.8071 470.502 36.054C473.47 39.3009 474.954 43.5131 474.954 48.6906C474.954 51.411 474.564 54.0875 473.783 56.7201L466.636 82.6515Z" fill="#28282F"/>
<path d="M344.493 82.6515C344.337 83.3536 344.259 83.8801 344.259 84.2311C344.259 84.8454 344.376 85.328 344.61 85.6791C344.923 86.0301 345.313 86.2056 345.782 86.2056C346.719 86.2056 347.5 85.7668 348.125 84.8893C348.828 83.924 349.296 83.4413 349.531 83.4413C349.921 83.4413 350.234 83.7485 350.468 84.3627C350.78 84.8893 350.937 85.5474 350.937 86.3372C351.015 88.7943 350.234 91.2515 348.594 93.7086C346.953 96.078 344.649 98.0524 341.681 99.632C338.713 101.212 335.394 102.001 331.723 102.001C327.115 102.001 323.444 100.948 320.711 98.8422C317.977 96.7361 316.22 93.9718 315.439 90.5494C312.627 94.0596 309.503 96.7361 306.066 98.5789C302.708 100.334 299.271 101.212 295.756 101.212C290.289 101.212 285.681 99.7198 281.932 96.7361C278.261 93.6647 276.426 89.4086 276.426 83.9678C276.426 81.5107 276.816 78.9658 277.597 76.3332L285.095 48.8222C285.33 48.0324 285.447 47.3743 285.447 46.8477C285.447 45.8824 285.252 45.1365 284.861 44.61C284.47 43.9957 283.885 43.3815 283.104 42.7672C282.323 42.0651 281.776 41.4509 281.463 40.9243C281.151 40.3978 281.112 39.6958 281.346 38.8182C281.815 36.7999 284.275 35.0448 288.727 33.553C293.179 31.9734 297.826 31.1836 302.669 31.1836C307.199 31.1836 310.518 32.1489 312.627 34.0795C314.736 36.0101 315.79 38.6427 315.79 41.9774C315.79 43.9957 315.517 45.9263 314.97 47.7692L307.589 75.1485C307.277 76.1138 307.121 77.0353 307.121 77.9128C307.121 79.1414 307.433 80.0628 308.058 80.6771C308.683 81.2913 309.503 81.5985 310.518 81.5985C312.002 81.5985 313.213 81.1158 314.15 80.1505C315.087 79.1852 316.024 77.5618 316.962 75.2802L324.108 48.8222C324.342 48.0324 324.46 47.3743 324.46 46.8477C324.46 45.8824 324.264 45.1365 323.874 44.61C323.483 43.9957 322.937 43.3815 322.234 42.7672C321.453 42.0651 320.906 41.4509 320.593 40.9243C320.281 40.3978 320.242 39.6958 320.476 38.8182C320.867 36.7999 323.288 35.0448 327.74 33.553C332.192 31.9734 336.839 31.1836 341.681 31.1836C346.211 31.1836 349.531 32.1489 351.64 34.0795C353.827 36.0101 354.92 38.5988 354.92 41.8458C354.92 43.5131 354.608 45.4876 353.983 47.7692L344.493 82.6515Z" fill="#28282F"/>
<path d="M244.008 30C250.491 30 256.076 30.6582 260.762 31.9745C265.526 33.2908 269.158 35.1336 271.657 37.503C274.235 39.8724 275.523 42.5489 275.523 45.5325C275.523 48.6039 274.43 51.1049 272.243 53.0355C270.134 54.9661 267.166 55.9314 263.339 55.9314C259.434 55.9314 256.115 54.8345 253.381 52.6406C250.725 50.4468 249.398 47.6825 249.398 44.3478C249.398 43.207 249.554 42.1101 249.866 41.0571C248.46 40.6183 247.211 40.3989 246.117 40.3989C244.165 40.3989 242.525 40.9254 241.197 41.9785C239.947 43.0315 239.361 44.5233 239.439 46.4539C239.439 48.7356 240.455 50.6662 242.485 52.2457C244.516 53.8253 247.797 55.7998 252.327 58.1691C256.232 60.0997 259.434 61.8987 261.933 63.566C264.511 65.1456 266.659 67.164 268.377 69.6211C270.173 72.0782 271.071 74.9741 271.071 78.3088C271.071 79.0108 270.915 80.3271 270.603 82.2577C269.353 88.1373 265.878 92.7883 260.176 96.2107C254.474 99.6331 246.976 101.344 237.682 101.344C227.216 101.344 218.898 99.7647 212.728 96.6056C206.636 93.4464 203.59 89.1026 203.59 83.574C203.59 79.8006 204.605 76.9486 206.636 75.018C208.667 73.0874 211.361 72.1221 214.72 72.1221C218.625 72.1221 221.944 73.4823 224.678 76.2027C227.49 78.9231 228.895 82.3894 228.895 86.6016C228.895 87.7424 228.778 88.9271 228.544 90.1556C230.418 90.6821 232.215 90.9454 233.933 90.9454C235.964 90.9454 237.643 90.3311 238.971 89.1026C240.299 87.874 240.962 86.1628 240.962 83.9689C240.884 81.9506 239.986 80.2394 238.268 78.8353C236.55 77.3435 233.816 75.5884 230.067 73.57C226.552 71.7272 223.662 70.016 221.397 68.4364C219.132 66.7691 217.18 64.7069 215.54 62.2497C213.978 59.7926 213.197 56.8967 213.197 53.562C213.197 46.3662 215.852 40.6622 221.163 36.4499C226.552 32.15 234.167 30 244.008 30Z" fill="#28282F"/>
<path d="M192.415 36.625C195.165 36.625 197.468 37.63 199.325 39.64C201.181 41.6501 202.109 44.1068 202.109 47.0102C202.109 49.0202 201.594 50.993 200.562 52.9286C199.6 54.8642 198.225 56.4648 196.437 57.7303C194.718 58.9215 192.758 59.517 190.558 59.517C187.808 59.517 185.505 58.512 183.648 56.502C181.861 54.492 180.967 51.998 180.967 49.0202C180.967 47.0102 181.448 45.0746 182.411 43.2134C183.373 41.2779 184.714 39.7145 186.433 38.5234C188.221 37.2578 190.214 36.625 192.415 36.625ZM181.792 73.0289C184.542 73.0289 186.845 74.0339 188.702 76.044C190.627 78.054 191.59 80.5107 191.59 83.4141C191.59 85.4241 191.074 87.3969 190.043 89.3325C189.08 91.2681 187.705 92.8687 185.917 94.1343C184.198 95.3254 182.239 95.921 180.038 95.921C177.357 95.921 175.088 94.9159 173.232 92.9059C171.375 90.8959 170.413 88.4392 170.344 85.5358C170.344 83.5258 170.825 81.553 171.788 79.6174C172.75 77.6818 174.091 76.1184 175.81 74.9273C177.598 73.6617 179.592 73.0289 181.792 73.0289Z" fill="#28282F"/>
<path d="M138.318 30.5273C148.237 30.5273 155.422 32.3263 159.874 35.9242C164.326 39.4344 166.552 43.9538 166.552 49.4823C166.552 51.1496 166.396 52.6853 166.084 54.0894C164.912 59.8812 161.632 64.0495 156.243 66.5944C150.932 69.0515 144.644 70.2801 137.381 70.2801C133.71 70.2801 130.273 70.0168 127.071 69.4903C126.993 74.0535 128.086 77.2565 130.351 79.0994C132.616 80.9422 135.779 81.8637 139.841 81.8637C141.715 81.8637 143.512 81.6443 145.23 81.2055C146.948 80.679 149.135 79.933 151.791 78.9678C153.978 78.0902 155.462 77.6514 156.243 77.6514C157.102 77.6514 157.531 78.2218 157.531 79.3627C157.609 82.4341 156.594 85.681 154.485 89.1034C152.376 92.438 149.252 95.2901 145.113 97.6594C140.973 100.029 135.975 101.213 130.117 101.213C121.447 101.213 114.34 98.7564 108.795 93.8421C103.249 88.9279 100.477 81.7759 100.477 72.3862C100.477 69.7535 100.789 66.6821 101.414 63.172C103.366 52.3782 107.623 44.2609 114.184 38.8201C120.823 33.2916 128.867 30.5273 138.318 30.5273ZM127.891 61.5924C128.203 61.6801 128.633 61.724 129.18 61.724C132.46 61.724 134.959 60.0128 136.678 56.5904C138.396 53.168 139.216 49.3507 139.138 45.1385C139.06 42.6813 138.435 41.4528 137.263 41.4528C136.404 41.4528 135.389 42.2426 134.217 43.8221C133.046 45.314 131.874 47.5956 130.703 50.667C129.609 53.7384 128.672 57.3802 127.891 61.5924Z" fill="#28282F"/>
<path d="M88.2798 31.1836C92.6537 31.1836 96.1293 32.6754 98.7067 35.6591C101.362 38.6427 102.69 42.3284 102.69 46.7161C102.69 48.3835 102.534 49.9192 102.221 51.3232C101.44 54.9212 99.9563 57.6854 97.7694 59.616C95.5825 61.5466 92.9661 62.5119 89.92 62.5119C86.9521 62.5119 84.6871 61.7221 83.125 60.1425C81.641 58.563 80.3133 56.4568 79.1417 53.8242C78.5169 52.3324 77.9311 51.2355 77.3844 50.5334C76.8377 49.8314 76.2128 49.4804 75.5099 49.4804C74.7289 49.4804 74.0259 49.8314 73.4011 50.5334C72.8544 51.2355 72.3467 52.464 71.8781 54.2191L62.8571 87.127C62.7009 87.5658 62.6228 88.2239 62.6228 89.1015C62.6228 90.2423 62.8962 91.2076 63.4429 91.9974C64.0677 92.6994 64.8878 93.4014 65.9032 94.1035C66.8404 94.8055 67.4652 95.3759 67.7776 95.8147C68.0901 96.2535 68.2072 96.8238 68.1291 97.5259C67.9729 98.6667 67.3871 99.5004 66.3718 100.027C65.4345 100.553 63.7944 100.817 61.4512 100.817H31.4594C29.4288 100.817 27.9838 100.466 27.1247 99.7636C26.1874 98.9738 25.836 97.9647 26.0703 96.7361C26.3827 95.683 27.2028 94.7616 28.5306 93.9718C29.7021 93.2698 30.6784 92.4361 31.4594 91.4708C32.2405 90.5055 32.9044 88.9698 33.4511 86.8637L43.8779 48.8222C44.0341 48.3835 44.1122 47.7692 44.1122 46.9794C44.1122 46.0141 43.917 45.2682 43.5265 44.7416C43.214 44.2151 42.6673 43.557 41.8863 42.7672C41.1052 42.0651 40.5585 41.4509 40.2461 40.9243C39.9337 40.3978 39.8946 39.6958 40.1289 38.8182C40.5976 36.7999 43.0578 35.0448 47.5097 33.553C51.9617 31.9734 56.6088 31.1836 61.4512 31.1836C64.6535 31.1836 67.309 32.0173 69.4178 33.6846C71.5266 35.2642 72.8934 37.5458 73.5183 40.5294C77.2672 34.2989 82.1878 31.1836 88.2798 31.1836Z" fill="#28282F"/>
</svg>
