<svg width="549" height="172" viewBox="0 0 549 172" fill="none" xmlns="http://www.w3.org/2000/svg">
<g filter="url(#filter0_d_4293_123955)">
<path d="M490.636 102.652C490.48 103.003 490.402 103.529 490.402 104.231C490.402 104.845 490.519 105.328 490.753 105.679C491.066 106.03 491.456 106.206 491.925 106.206C492.862 106.206 493.643 105.767 494.268 104.889C494.971 103.924 495.44 103.441 495.674 103.441C496.064 103.441 496.377 103.748 496.611 104.363C496.845 104.889 496.963 105.547 496.963 106.337C497.041 108.882 496.299 111.383 494.737 113.84C493.175 116.21 490.871 118.184 487.824 119.764C484.857 121.255 481.264 122.001 477.046 122.001C471.891 122.001 467.791 120.685 464.745 118.052C461.699 115.332 460.137 111.734 460.059 107.259C460.059 104.012 460.762 100.37 462.167 96.3332L468.611 77.3783C469.001 76.2375 469.197 75.316 469.197 74.614C469.197 73.4732 468.845 72.5957 468.142 71.9814C467.518 71.2793 466.737 70.9283 465.799 70.9283C464.471 70.9283 463.105 71.5865 461.699 72.9028C460.293 74.2191 459.043 76.2813 457.95 79.0895L451.506 102.652C451.35 103.003 451.272 103.529 451.272 104.231C451.272 104.845 451.389 105.328 451.623 105.679C451.936 106.03 452.326 106.206 452.795 106.206C453.732 106.206 454.513 105.767 455.138 104.889C455.841 103.924 456.31 103.441 456.544 103.441C456.934 103.441 457.247 103.748 457.481 104.363C457.716 104.889 457.833 105.547 457.833 106.337C457.911 108.882 457.169 111.383 455.607 113.84C454.045 116.21 451.741 118.184 448.695 119.764C445.727 121.255 442.134 122.001 437.916 122.001C432.761 122.001 428.661 120.685 425.615 118.052C422.569 115.332 421.007 111.734 420.929 107.259C420.929 104.012 421.632 100.37 423.038 96.3332L429.481 77.3783C429.872 76.2375 430.067 75.316 430.067 74.614C430.067 73.4732 429.715 72.5957 429.012 71.9814C428.388 71.2793 427.607 70.9283 426.669 70.9283C425.342 70.9283 423.975 71.5865 422.569 72.9028C421.163 74.1314 419.991 76.1497 419.054 78.9578L411.322 107.127C411.01 108.092 410.853 109.014 410.853 109.891C410.853 110.944 411.049 111.822 411.439 112.524C411.83 113.138 412.376 113.796 413.079 114.498C413.626 115.025 414.017 115.508 414.251 115.946C414.485 116.385 414.524 116.912 414.368 117.526C414.056 118.667 413.314 119.5 412.142 120.027C410.971 120.553 409.135 120.817 406.636 120.817H379.924C377.894 120.817 376.449 120.466 375.59 119.764C374.652 118.974 374.301 117.965 374.535 116.736C374.848 115.683 375.668 114.762 376.995 113.972C378.167 113.27 379.143 112.436 379.924 111.471C380.705 110.506 381.369 108.97 381.916 106.864L392.343 68.8222C392.499 68.3835 392.577 67.7692 392.577 66.9794C392.577 66.0141 392.382 65.2682 391.991 64.7416C391.679 64.2151 391.132 63.557 390.351 62.7672C389.57 62.0651 389.023 61.4509 388.711 60.9243C388.399 60.3978 388.359 59.6958 388.594 58.8182C389.062 56.7999 391.523 55.0448 395.975 53.553C400.426 51.9734 405.074 51.1836 409.916 51.1836C413.743 51.1836 416.75 52.3683 418.937 54.7376C421.202 57.107 422.296 60.3539 422.217 64.4784C425.42 59.4764 428.778 56.0101 432.293 54.0795C435.886 52.1489 439.752 51.1836 443.891 51.1836C448.421 51.1836 452.092 52.6754 454.904 55.6591C457.794 58.555 459.395 62.3723 459.707 67.111C463.066 61.1437 466.658 57.0193 470.485 54.7376C474.313 52.3683 478.491 51.1836 483.021 51.1836C487.785 51.1836 491.613 52.8071 494.502 56.054C497.47 59.3009 498.954 63.5131 498.954 68.6906C498.954 71.411 498.564 74.0875 497.783 76.7201L490.636 102.652Z" fill="white"/>
<path d="M368.493 102.652C368.337 103.354 368.259 103.88 368.259 104.231C368.259 104.845 368.376 105.328 368.61 105.679C368.923 106.03 369.313 106.206 369.782 106.206C370.719 106.206 371.5 105.767 372.125 104.889C372.828 103.924 373.296 103.441 373.531 103.441C373.921 103.441 374.234 103.748 374.468 104.363C374.78 104.889 374.937 105.547 374.937 106.337C375.015 108.794 374.234 111.251 372.594 113.709C370.953 116.078 368.649 118.052 365.681 119.632C362.713 121.212 359.394 122.001 355.723 122.001C351.115 122.001 347.444 120.948 344.711 118.842C341.977 116.736 340.22 113.972 339.439 110.549C336.627 114.06 333.503 116.736 330.066 118.579C326.708 120.334 323.271 121.212 319.756 121.212C314.289 121.212 309.681 119.72 305.932 116.736C302.261 113.665 300.426 109.409 300.426 103.968C300.426 101.511 300.816 98.9658 301.597 96.3332L309.095 68.8222C309.33 68.0324 309.447 67.3743 309.447 66.8477C309.447 65.8824 309.252 65.1365 308.861 64.61C308.47 63.9957 307.885 63.3815 307.104 62.7672C306.323 62.0651 305.776 61.4509 305.463 60.9243C305.151 60.3978 305.112 59.6958 305.346 58.8182C305.815 56.7999 308.275 55.0448 312.727 53.553C317.179 51.9734 321.826 51.1836 326.669 51.1836C331.199 51.1836 334.518 52.1489 336.627 54.0795C338.736 56.0101 339.79 58.6427 339.79 61.9774C339.79 63.9957 339.517 65.9263 338.97 67.7692L331.589 95.1485C331.277 96.1138 331.121 97.0353 331.121 97.9128C331.121 99.1414 331.433 100.063 332.058 100.677C332.683 101.291 333.503 101.598 334.518 101.598C336.002 101.598 337.213 101.116 338.15 100.151C339.087 99.1852 340.024 97.5618 340.962 95.2802L348.108 68.8222C348.342 68.0324 348.46 67.3743 348.46 66.8477C348.46 65.8824 348.264 65.1365 347.874 64.61C347.483 63.9957 346.937 63.3815 346.234 62.7672C345.453 62.0651 344.906 61.4509 344.593 60.9243C344.281 60.3978 344.242 59.6958 344.476 58.8182C344.867 56.7999 347.288 55.0448 351.74 53.553C356.192 51.9734 360.839 51.1836 365.681 51.1836C370.211 51.1836 373.531 52.1489 375.64 54.0795C377.827 56.0101 378.92 58.5988 378.92 61.8458C378.92 63.5131 378.608 65.4876 377.983 67.7692L368.493 102.652Z" fill="white"/>
<path d="M268.008 50C274.491 50 280.076 50.6582 284.762 51.9745C289.526 53.2908 293.158 55.1336 295.657 57.503C298.235 59.8724 299.523 62.5489 299.523 65.5325C299.523 68.6039 298.43 71.1049 296.243 73.0355C294.134 74.9661 291.166 75.9314 287.339 75.9314C283.434 75.9314 280.115 74.8345 277.381 72.6406C274.725 70.4468 273.398 67.6825 273.398 64.3478C273.398 63.207 273.554 62.1101 273.866 61.0571C272.46 60.6183 271.211 60.3989 270.117 60.3989C268.165 60.3989 266.525 60.9254 265.197 61.9785C263.947 63.0315 263.361 64.5233 263.439 66.4539C263.439 68.7356 264.455 70.6662 266.485 72.2457C268.516 73.8253 271.797 75.7998 276.327 78.1691C280.232 80.0997 283.434 81.8987 285.933 83.566C288.511 85.1456 290.659 87.164 292.377 89.6211C294.173 92.0782 295.071 94.9741 295.071 98.3088C295.071 99.0108 294.915 100.327 294.603 102.258C293.353 108.137 289.878 112.788 284.176 116.211C278.474 119.633 270.976 121.344 261.682 121.344C251.216 121.344 242.898 119.765 236.728 116.606C230.636 113.446 227.59 109.103 227.59 103.574C227.59 99.8006 228.605 96.9486 230.636 95.018C232.667 93.0874 235.361 92.1221 238.72 92.1221C242.625 92.1221 245.944 93.4823 248.678 96.2027C251.49 98.9231 252.895 102.389 252.895 106.602C252.895 107.742 252.778 108.927 252.544 110.156C254.418 110.682 256.215 110.945 257.933 110.945C259.964 110.945 261.643 110.331 262.971 109.103C264.299 107.874 264.962 106.163 264.962 103.969C264.884 101.951 263.986 100.239 262.268 98.8353C260.55 97.3435 257.816 95.5884 254.067 93.57C250.552 91.7272 247.662 90.016 245.397 88.4364C243.132 86.7691 241.18 84.7069 239.54 82.2497C237.978 79.7926 237.197 76.8967 237.197 73.562C237.197 66.3662 239.852 60.6622 245.163 56.4499C250.552 52.15 258.167 50 268.008 50Z" fill="white"/>
<path d="M216.415 56.625C219.165 56.625 221.468 57.63 223.325 59.64C225.181 61.6501 226.109 64.1068 226.109 67.0102C226.109 69.0202 225.594 70.993 224.562 72.9286C223.6 74.8642 222.225 76.4648 220.437 77.7303C218.718 78.9215 216.758 79.517 214.558 79.517C211.808 79.517 209.505 78.512 207.648 76.502C205.861 74.492 204.967 71.998 204.967 69.0202C204.967 67.0102 205.448 65.0746 206.411 63.2134C207.373 61.2779 208.714 59.7145 210.433 58.5234C212.221 57.2578 214.214 56.625 216.415 56.625ZM205.792 93.0289C208.542 93.0289 210.845 94.0339 212.702 96.044C214.627 98.054 215.59 100.511 215.59 103.414C215.59 105.424 215.074 107.397 214.043 109.333C213.08 111.268 211.705 112.869 209.917 114.134C208.198 115.325 206.239 115.921 204.038 115.921C201.357 115.921 199.088 114.916 197.232 112.906C195.375 110.896 194.413 108.439 194.344 105.536C194.344 103.526 194.825 101.553 195.788 99.6174C196.75 97.6818 198.091 96.1184 199.81 94.9273C201.598 93.6617 203.592 93.0289 205.792 93.0289Z" fill="white"/>
<path d="M162.318 50.5273C172.237 50.5273 179.422 52.3263 183.874 55.9242C188.326 59.4344 190.552 63.9538 190.552 69.4823C190.552 71.1496 190.396 72.6853 190.084 74.0894C188.912 79.8812 185.632 84.0495 180.243 86.5944C174.932 89.0515 168.644 90.2801 161.381 90.2801C157.71 90.2801 154.273 90.0168 151.071 89.4903C150.993 94.0535 152.086 97.2565 154.351 99.0994C156.616 100.942 159.779 101.864 163.841 101.864C165.715 101.864 167.512 101.644 169.23 101.205C170.948 100.679 173.135 99.933 175.791 98.9678C177.978 98.0902 179.462 97.6514 180.243 97.6514C181.102 97.6514 181.531 98.2218 181.531 99.3627C181.609 102.434 180.594 105.681 178.485 109.103C176.376 112.438 173.252 115.29 169.113 117.659C164.973 120.029 159.975 121.213 154.117 121.213C145.447 121.213 138.34 118.756 132.795 113.842C127.249 108.928 124.477 101.776 124.477 92.3862C124.477 89.7535 124.789 86.6821 125.414 83.172C127.366 72.3782 131.623 64.2609 138.184 58.8201C144.823 53.2916 152.867 50.5273 162.318 50.5273ZM151.891 81.5924C152.203 81.6801 152.633 81.724 153.18 81.724C156.46 81.724 158.959 80.0128 160.678 76.5904C162.396 73.168 163.216 69.3507 163.138 65.1385C163.06 62.6813 162.435 61.4528 161.263 61.4528C160.404 61.4528 159.389 62.2426 158.217 63.8221C157.046 65.314 155.874 67.5956 154.703 70.667C153.609 73.7384 152.672 77.3802 151.891 81.5924Z" fill="white"/>
<path d="M112.28 51.1836C116.654 51.1836 120.129 52.6754 122.707 55.6591C125.362 58.6427 126.69 62.3284 126.69 66.7161C126.69 68.3835 126.534 69.9192 126.221 71.3232C125.44 74.9212 123.956 77.6854 121.769 79.616C119.583 81.5466 116.966 82.5119 113.92 82.5119C110.952 82.5119 108.687 81.7221 107.125 80.1425C105.641 78.563 104.313 76.4568 103.142 73.8242C102.517 72.3324 101.931 71.2355 101.384 70.5334C100.838 69.8314 100.213 69.4804 99.5099 69.4804C98.7289 69.4804 98.0259 69.8314 97.4011 70.5334C96.8544 71.2355 96.3467 72.464 95.8781 74.2191L86.8571 107.127C86.7009 107.566 86.6228 108.224 86.6228 109.101C86.6228 110.242 86.8962 111.208 87.4429 111.997C88.0677 112.699 88.8878 113.401 89.9032 114.103C90.8404 114.806 91.4652 115.376 91.7776 115.815C92.0901 116.253 92.2072 116.824 92.1291 117.526C91.9729 118.667 91.3871 119.5 90.3718 120.027C89.4345 120.553 87.7944 120.817 85.4512 120.817H55.4594C53.4288 120.817 51.9838 120.466 51.1247 119.764C50.1874 118.974 49.836 117.965 50.0703 116.736C50.3827 115.683 51.2028 114.762 52.5306 113.972C53.7021 113.27 54.6784 112.436 55.4594 111.471C56.2405 110.506 56.9044 108.97 57.4511 106.864L67.8779 68.8222C68.0341 68.3835 68.1122 67.7692 68.1122 66.9794C68.1122 66.0141 67.917 65.2682 67.5265 64.7416C67.214 64.2151 66.6673 63.557 65.8863 62.7672C65.1052 62.0651 64.5585 61.4509 64.2461 60.9243C63.9337 60.3978 63.8946 59.6958 64.1289 58.8182C64.5976 56.7999 67.0578 55.0448 71.5097 53.553C75.9617 51.9734 80.6088 51.1836 85.4512 51.1836C88.6535 51.1836 91.309 52.0173 93.4178 53.6846C95.5266 55.2642 96.8934 57.5458 97.5183 60.5294C101.267 54.2989 106.188 51.1836 112.28 51.1836Z" fill="white"/>
</g>
<defs>
<filter id="filter0_d_4293_123955" x="0" y="0" width="548.953" height="172" filterUnits="userSpaceOnUse" color-interpolation-filters="sRGB">
<feFlood flood-opacity="0" result="BackgroundImageFix"/>
<feColorMatrix in="SourceAlpha" type="matrix" values="0 0 0 0 0 0 0 0 0 0 0 0 0 0 0 0 0 0 127 0" result="hardAlpha"/>
<feOffset/>
<feGaussianBlur stdDeviation="25"/>
<feComposite in2="hardAlpha" operator="out"/>
<feColorMatrix type="matrix" values="0 0 0 0 0.857215 0 0 0 0 0.142424 0 0 0 0 0.380688 0 0 0 0.62 0"/>
<feBlend mode="normal" in2="BackgroundImageFix" result="effect1_dropShadow_4293_123955"/>
<feBlend mode="normal" in="SourceGraphic" in2="effect1_dropShadow_4293_123955" result="shape"/>
</filter>
</defs>
</svg>
