<svg width="56" height="56" viewBox="0 0 56 56" fill="none" xmlns="http://www.w3.org/2000/svg">
<rect x="0.5" y="0.5" width="55" height="55" rx="27.5" fill="#F9F9FB"/>
<rect x="0.5" y="0.5" width="55" height="55" rx="27.5" stroke="#ECEFF2"/>
<path d="M28.4741 18.2553C28.1781 18.0959 27.8219 18.0959 27.5259 18.2553L18.7406 22.9858C18.5924 23.0656 18.5 23.2203 18.5 23.3886C18.5 23.6413 18.7048 23.8462 18.9575 23.8462H37.0425C37.2952 23.8462 37.5 23.6413 37.5 23.3886C37.5 23.2203 37.4076 23.0656 37.2594 22.9858L28.4741 18.2553ZM20.9615 25.3077C20.4093 25.3077 19.9615 25.7554 19.9615 26.3077V32.3286C19.9615 32.516 19.9089 32.6997 19.8095 32.8586L18.652 34.7106C18.5527 34.8696 18.5 35.0532 18.5 35.2406V36C18.5 36.5523 18.9477 37 19.5 37H36.5C37.0523 37 37.5 36.5523 37.5 36V35.2406C37.5 35.0532 37.4473 34.8696 37.348 34.7106L36.1905 32.8586C36.0911 32.6997 36.0385 32.516 36.0385 32.3286V26.3077C36.0385 25.7554 35.5907 25.3077 35.0385 25.3077H20.9615ZM22.8846 27.5C22.8846 27.0964 23.2118 26.7692 23.6154 26.7692C24.019 26.7692 24.3462 27.0964 24.3462 27.5V34.0769C24.3462 34.4805 24.019 34.8077 23.6154 34.8077C23.2118 34.8077 22.8846 34.4805 22.8846 34.0769V27.5ZM27.2692 27.5C27.2692 27.0964 27.5964 26.7692 28 26.7692C28.4036 26.7692 28.7308 27.0964 28.7308 27.5V34.0769C28.7308 34.4805 28.4036 34.8077 28 34.8077C27.5964 34.8077 27.2692 34.4805 27.2692 34.0769V27.5ZM31.6538 27.5C31.6538 27.0964 31.981 26.7692 32.3846 26.7692C32.7882 26.7692 33.1154 27.0964 33.1154 27.5V34.0769C33.1154 34.4805 32.7882 34.8077 32.3846 34.8077C31.981 34.8077 31.6538 34.4805 31.6538 34.0769V27.5Z" fill="url(#culture_gradient)"/>
<defs>
<radialGradient id="culture_gradient" cx="28" cy="28" r="14" gradientUnits="userSpaceOnUse">
<stop stop-color="#E34F97"/>
<stop offset="1" stop-color="#F29C9C"/>
</radialGradient>
</defs>
</svg>
