<svg width="56" height="56" viewBox="0 0 56 56" fill="none" xmlns="http://www.w3.org/2000/svg">
<rect x="0.5" y="0.5" width="55" height="55" rx="27.5" fill="#F9F9FB"/>
<rect x="0.5" y="0.5" width="55" height="55" rx="27.5" stroke="#ECEFF2"/>
<path d="M19 20.9286C19 20.4171 19.2032 19.9265 19.5649 19.5649C19.9265 19.2032 20.4171 19 20.9286 19H24.7857C25.2972 19 25.7877 19.2032 26.1494 19.5649C26.5111 19.9265 26.7143 20.4171 26.7143 20.9286V24.7857C26.7143 25.2972 26.5111 25.7877 26.1494 26.1494C25.7877 26.5111 25.2972 26.7143 24.7857 26.7143H20.9286C20.4171 26.7143 19.9265 26.5111 19.5649 26.1494C19.2032 25.7877 19 25.2972 19 24.7857V20.9286ZM29.2857 20.9286C29.2857 20.4171 29.4889 19.9265 29.8506 19.5649C30.2123 19.2032 30.7028 19 31.2143 19H35.0714C35.5829 19 36.0735 19.2032 36.4351 19.5649C36.7968 19.9265 37 20.4171 37 20.9286V24.7857C37 25.2972 36.7968 25.7877 36.4351 26.1494C36.0735 26.5111 35.5829 26.7143 35.0714 26.7143H31.2143C30.7028 26.7143 30.2123 26.5111 29.8506 26.1494C29.4889 25.7877 29.2857 25.2972 29.2857 24.7857V20.9286ZM19 31.2143C19 30.7028 19.2032 30.2123 19.5649 29.8506C19.9265 29.4889 20.4171 29.2857 20.9286 29.2857H24.7857C25.2972 29.2857 25.7877 29.4889 26.1494 29.8506C26.5111 30.2123 26.7143 30.7028 26.7143 31.2143V35.0714C26.7143 35.5829 26.5111 36.0735 26.1494 36.4351C25.7877 36.7968 25.2972 37 24.7857 37H20.9286C20.4171 37 19.9265 36.7968 19.5649 36.4351C19.2032 36.0735 19 35.5829 19 35.0714V31.2143ZM29.2857 31.2143C29.2857 30.7028 29.4889 30.2123 29.8506 29.8506C30.2123 29.4889 30.7028 29.2857 31.2143 29.2857H35.0714C35.5829 29.2857 36.0735 29.4889 36.4351 29.8506C36.7968 30.2123 37 30.7028 37 31.2143V35.0714C37 35.5829 36.7968 36.0735 36.4351 36.4351C36.0735 36.7968 35.5829 37 35.0714 37H31.2143C30.7028 37 30.2123 36.7968 29.8506 36.4351C29.4889 36.0735 29.2857 35.5829 29.2857 35.0714V31.2143Z" fill="url(#etc_gradient)"/>
<defs>
<radialGradient id="etc_gradient" cx="28" cy="28" r="14" gradientUnits="userSpaceOnUse">
<stop stop-color="#E34F97"/>
<stop offset="1" stop-color="#F29C9C"/>
</radialGradient>
</defs>
</svg>
