<svg width="56" height="56" viewBox="0 0 56 56" fill="none" xmlns="http://www.w3.org/2000/svg">
<rect x="0.5" y="0.5" width="55" height="55" rx="27.5" fill="#F9F9FB"/>
<rect x="0.5" y="0.5" width="55" height="55" rx="27.5" stroke="#ECEFF2"/>
<path d="M29.1301 30.56L30.5601 29.13L36.2901 34.86C36.6801 35.25 36.6801 35.89 36.2901 36.29C35.9001 36.68 35.2601 36.68 34.8601 36.29L29.1301 30.56ZM33.4201 24.83L34.6901 23.56C35.5801 22.67 35.4601 21.13 34.3801 20.48C32.4476 19.2994 30.1745 18.8026 27.9257 19.0691C25.6769 19.3357 23.5829 20.3503 21.9801 21.95C25.9101 20.65 30.2901 21.7 33.4201 24.83ZM21.9501 21.98C18.5901 25.35 18.1001 30.49 20.4701 34.38C21.1301 35.46 22.6601 35.59 23.5501 34.69L24.8201 33.42C21.7001 30.29 20.6501 25.91 21.9501 21.98ZM21.9701 21.96L21.9601 21.97C21.5801 24.98 23.1301 28.85 26.2601 31.99L31.9901 26.26C28.8601 23.13 24.9801 21.58 21.9701 21.96Z" fill="url(#leisure_gradient)"/>
<defs>
<radialGradient id="leisure_gradient" cx="28" cy="28" r="14" gradientUnits="userSpaceOnUse">
<stop stop-color="#E34F97"/>
<stop offset="1" stop-color="#F29C9C"/>
</radialGradient>
</defs>
</svg>
