<svg width="56" height="56" viewBox="0 0 56 56" fill="none" xmlns="http://www.w3.org/2000/svg">
<rect x="0.5" y="0.5" width="55" height="55" rx="27.5" fill="#F9F9FB"/>
<rect x="0.5" y="0.5" width="55" height="55" rx="27.5" stroke="#ECEFF2"/>
<path d="M38.8707 34.7505L38.8769 34.7469L30.8979 20.9272L30.8945 20.9291C30.7188 20.5686 30.3521 20.3178 29.9239 20.3178C29.7155 20.3182 29.5116 20.3787 29.3368 20.4921C29.1619 20.6056 29.0236 20.767 28.9383 20.9572L23.6283 30.154L22.3282 27.9023L22.3265 27.9033C22.2802 27.8068 22.2075 27.7253 22.117 27.6683C22.0264 27.6112 21.9216 27.5809 21.8146 27.5807C21.5832 27.5807 21.3847 27.7194 21.2952 27.9172L17.5051 34.4822H17.4881V34.5114L17.1211 35.147C17.077 35.2042 17.053 35.2744 17.0527 35.3466C17.0527 35.53 17.2013 35.6786 17.3844 35.6786C17.4209 35.6786 17.4552 35.6714 17.4881 35.6603V35.6822H38.3681V35.6702C38.5255 35.6581 38.6725 35.5871 38.7798 35.4714C38.8872 35.3557 38.947 35.2038 38.9472 35.0459C38.9465 34.9426 38.9202 34.8411 38.8707 34.7505Z" fill="url(#nature_gradient)"/>
<defs>
<radialGradient id="nature_gradient" cx="28" cy="28" r="14" gradientUnits="userSpaceOnUse">
<stop stop-color="#E34F97"/>
<stop offset="1" stop-color="#F29C9C"/>
</radialGradient>
</defs>
</svg>
