<svg width="56" height="56" viewBox="0 0 56 56" fill="none" xmlns="http://www.w3.org/2000/svg">
<rect x="0.5" y="0.5" width="55" height="55" rx="27.5" fill="#F9F9FB"/>
<rect x="0.5" y="0.5" width="55" height="55" rx="27.5" stroke="#ECEFF2"/>
<path d="M36.9981 19V21C36.9981 30.627 31.6251 35 24.9981 35H24.1689C23.589 35 23.1251 34.5071 23.2096 33.9333C23.5634 31.5315 24.5491 29.8969 26.6941 27.999C27.8981 26.934 27.7961 26.319 27.2031 26.672C23.1191 29.102 21.0901 32.386 21.0001 37.63C20.9984 37.8348 20.8319 38 20.6271 38H19.9971C19.4448 38 18.9943 37.5521 19.0188 37.0003C19.0591 36.0957 19.1552 35.2495 19.3064 34.4546C19.3299 34.3311 19.3315 34.2049 19.3112 34.0808C19.1031 32.8065 18.9987 31.1128 18.9981 29C18.9981 23.477 23.4751 19 28.9981 19C30.9981 19 32.9981 20 36.9981 19Z" fill="url(#relaxation_gradient)"/>
<defs>
<radialGradient id="relaxation_gradient" cx="28" cy="28" r="14" gradientUnits="userSpaceOnUse">
<stop stop-color="#E34F97"/>
<stop offset="1" stop-color="#F29C9C"/>
</radialGradient>
</defs>
</svg>
