<svg width="56" height="56" viewBox="0 0 56 56" fill="none" xmlns="http://www.w3.org/2000/svg">
<rect x="0.5" y="0.5" width="55" height="55" rx="27.5" fill="#F9F9FB"/>
<rect x="0.5" y="0.5" width="55" height="55" rx="27.5" stroke="#ECEFF2"/>
<path d="M19.743 18.816C19.7616 18.5903 19.8664 18.3805 20.0357 18.2301C20.205 18.0798 20.4258 18.0005 20.6521 18.0087C20.8784 18.017 21.0928 18.1121 21.2507 18.2744C21.4086 18.4367 21.4979 18.6536 21.5 18.88V23.374C21.5 23.5398 21.5658 23.6987 21.6831 23.8159C21.8003 23.9332 21.9592 23.999 22.125 23.999C22.2908 23.999 22.4497 23.9332 22.5669 23.8159C22.6842 23.6987 22.75 23.5398 22.75 23.374V18.75C22.75 18.5511 22.829 18.3603 22.9697 18.2197C23.1103 18.079 23.3011 18 23.5 18C23.6989 18 23.8897 18.079 24.0303 18.2197C24.171 18.3603 24.25 18.5511 24.25 18.75V23.374C24.25 23.5398 24.3158 23.6987 24.4331 23.8159C24.5503 23.9332 24.7092 23.999 24.875 23.999C25.0408 23.999 25.1997 23.9332 25.3169 23.8159C25.4342 23.6987 25.5 23.5398 25.5 23.374V18.88C25.5021 18.6536 25.5914 18.4367 25.7493 18.2744C25.9072 18.1121 26.1216 18.017 26.3479 18.0087C26.5742 18.0005 26.795 18.0798 26.9643 18.2301C27.1336 18.3805 27.2384 18.5903 27.257 18.816C27.3 19.428 27.5 22.37 27.5 24C27.5 25.35 26.83 26.544 25.808 27.267C25.592 27.42 25.54 27.582 25.545 27.664C25.668 29.542 26 34.682 26 35.497C26 36.16 25.7366 36.7959 25.2678 37.2648C24.7989 37.7336 24.163 37.997 23.5 37.997C22.837 37.997 22.2011 37.7336 21.7322 37.2648C21.2634 36.7959 21 36.16 21 35.497C21 34.681 21.332 29.542 21.455 27.664C21.46 27.582 21.408 27.42 21.192 27.267C20.6691 26.8976 20.2425 26.4081 19.9481 25.8396C19.6537 25.2711 19.5 24.6402 19.5 24C19.5 22.37 19.7 19.428 19.743 18.816ZM29 23.75C29 22.225 29.6058 20.7625 30.6841 19.6841C31.7625 18.6058 33.225 18 34.75 18C34.9489 18 35.1397 18.079 35.2803 18.2197C35.421 18.3603 35.5 18.5511 35.5 18.75V27.25C35.5 27.568 35.606 29.145 35.725 30.892L35.73 30.975C35.86 32.883 36 34.958 36 35.497C36 36.16 35.7366 36.7959 35.2678 37.2648C34.7989 37.7336 34.163 37.997 33.5 37.997C32.837 37.997 32.2011 37.7336 31.7322 37.2648C31.2634 36.7959 31 36.16 31 35.497C31 34.983 31.128 32.886 31.252 30.963C31.314 29.992 31.377 29.051 31.424 28.353L31.447 28H30.75C30.5202 28 30.2926 27.9547 30.0803 27.8668C29.868 27.7788 29.6751 27.6499 29.5126 27.4874C29.3501 27.3249 29.2212 27.132 29.1332 26.9197C29.0453 26.7074 29 26.4798 29 26.25V23.75Z" fill="url(#food_gradient)"/>
<defs>
<radialGradient id="food_gradient" cx="28" cy="28" r="14" gradientUnits="userSpaceOnUse">
<stop stop-color="#E34F97"/>
<stop offset="1" stop-color="#F29C9C"/>
</radialGradient>
</defs>
</svg>
